PathFileType	4	(x/y/z)	S01_M20_T12.trc
DataRate	CameraRate	NumFrames	NumMarkers	Units	OrigDataRate	OrigDataStartFrame	OrigNumFrames
240	240	7	51	mm	240	1	432
Frame#	Time	Sternum			R.Acromium			L.Acromium			Top.Head			R.ASIS			L.ASIS			R.PSIS			L.PSIS			R.Great.Tro			L.Great.Tro			R.Iliac.Crest			L.Iliac.Crest			V.Sacral			R.Thigh.Upper.Post			R.Thigh.Lower.Ant			R.Thigh.Lower.Post			R.Thigh.Upper.Ant			R.Knee.Lat			R.Knee.Med			R.Shank.Upper.Post			R.Shank.Lower.Ant			R.Shank.Lower.Post			R.Shank.Upper.Ant			R.Ankle.Lat			R.Ankle.Med			R.Heel.Upper			R.Heel.Med			R.Heel.Lat			R.Toe.Lat			R.Toe.Med			R.Toe.Tip			L.Thigh.Upper.Post			L.Thigh.Lower.Ant			L.Thigh.Lower.Post			L.Thigh.Upper.Ant			L.Knee.Lat			L.Knee.Med			L.Shank.Upper.Post			L.Shank.Lower.Ant			L.Shank.Lower.Post			L.Shank.Upper.Ant			L.Ankle.Lat			L.Ankle.Med			L.Heel.Upper			L.Heel.Med			L.Heel.Lat			L.Toe.Lat			L.Toe.Med			L.Toe.Tip			Cervical.Spine			Back			
		X1	Y1	Z1	X2	Y2	Z2	X3	Y3	Z3	X4	Y4	Z4	X5	Y5	Z5	X6	Y6	Z6	X7	Y7	Z7	X8	Y8	Z8	X9	Y9	Z9	X10	Y10	Z10	X11	Y11	Z11	X12	Y12	Z12	X13	Y13	Z13	X14	Y14	Z14	X15	Y15	Z15	X16	Y16	Z16	X17	Y17	Z17	X18	Y18	Z18	X19	Y19	Z19	X20	Y20	Z20	X21	Y21	Z21	X22	Y22	Z22	X23	Y23	Z23	X24	Y24	Z24	X25	Y25	Z25	X26	Y26	Z26	X27	Y27	Z27	X28	Y28	Z28	X29	Y29	Z29	X30	Y30	Z30	X31	Y31	Z31	X32	Y32	Z32	X33	Y33	Z33	X34	Y34	Z34	X35	Y35	Z35	X36	Y36	Z36	X37	Y37	Z37	X38	Y38	Z38	X39	Y39	Z39	X40	Y40	Z40	X41	Y41	Z41	X42	Y42	Z42	X43	Y43	Z43	X44	Y44	Z44	X45	Y45	Z45	X46	Y46	Z46	X47	Y47	Z47	X48	Y48	Z48	X49	Y49	Z49	X50	Y50	Z50	X51	Y51	Z51	

1	0	NaN	NaN	NaN	-1408.4	1506.2	445.49	-1425.9	1519.6	117.99	-1371	1825.9	269.89	NaN	NaN	NaN	NaN	NaN	NaN	-1590.9	1042.3	324.91	-1581.3	1037.7	221.97	-1456.5	949.32	516.78	-1424.6	954.93	88.956	-1449.4	1103.4	495.31	-1440.3	1078.2	89.063	-1597.1	1003.3	270.01	-1464.3	646.74	519.14	-1388.8	570.86	517.8	-1460.4	556.76	513.03	-1389.1	662.2	521.39	-1451.1	493.55	518.52	-1419.8	477.1	374.04	-1600.4	439.84	528.97	NaN	NaN	NaN	NaN	NaN	NaN	-1574.9	380.68	511.39	-1831.9	291.64	474.5	-1797	260.69	388.14	-1875	339.49	409.07	-1886.9	315.72	375.94	-1905	318.11	437.59	-1854.1	136.24	501.09	-1814.1	114.73	385.75	NaN	NaN	NaN	-1354.2	673.2	125.8	-1249.9	635.62	131.46	-1315.1	593.39	149.37	-1298.2	715.12	107.07	-1236.8	532.45	147.31	-1224.9	548.09	288.5	-1273.1	392.8	127.47	-1207.5	307.87	158.35	-1267.5	315.13	131.84	-1211.4	384.2	149.3	-1277.3	104.41	168.15	-1256.4	115.31	269.42	-1350.4	73.847	211.99	-1340.6	48.926	245.64	-1340.9	49.254	183.36	-1128	41.625	158.95	-1107.8	47.041	281.63	-1042.2	55.957	233.56	-1507.6	1573.6	285.6	-1602.2	1263.1	299.65
2	0.0041667	NaN	NaN	NaN	-1404.1	1507.7	444.93	-1421.2	1520.8	117.4	-1365.8	1827.1	269.28	NaN	NaN	NaN	NaN	NaN	NaN	-1586.1	1043.6	324.4	-1576.4	1039.1	221.45	-1451.7	950.96	516.69	-1419.9	955.89	88.808	-1445.2	1105	494.99	-1434.6	1079.4	88.785	-1592.4	1004.6	269.5	-1456.3	648.08	519.2	-1380.3	572.82	517.79	-1451.8	558.12	513.08	-1381.4	664.1	521.39	-1443	495.61	518.75	-1410.5	478.83	374	-1590.9	441.13	528.59	NaN	NaN	NaN	NaN	NaN	NaN	-1565.3	382.03	511.4	-1821.6	291.98	474.25	-1786.5	260.66	387.98	-1865.2	339	408.38	-1877	314.85	375.49	-1895	317.75	437.09	-1843.5	137	502.07	-1802.7	114.48	386.97	NaN	NaN	NaN	-1351.2	673.92	125.46	-1247.1	635.8	131.12	-1312.6	593.88	148.93	-1295	715.52	106.79	-1234.7	532.43	146.92	-1222.9	547.82	287.88	-1271.9	392.83	127.14	-1206.5	307.63	158.09	-1266.5	315.05	131.54	-1210	383.95	148.91	-1277.2	104.54	168.11	-1256.2	115.43	269.32	-1350.3	74.06	211.95	-1340.6	49.132	245.57	-1340.9	49.368	183.33	-1127.9	41.492	158.96	-1107.7	46.957	281.61	-1042.1	55.768	233.48	-1503.1	1575	284.91	-1597.5	1264.3	298.96
3	0.0083333	NaN	NaN	NaN	-1399.7	1509.2	444.35	-1416.3	1522.1	116.8	-1360.5	1828.3	268.66	NaN	NaN	NaN	NaN	NaN	NaN	-1581.2	1045	323.9	-1571.4	1040.5	220.94	-1446.7	952.66	516.61	-1415	956.92	88.654	-1440.7	1106.6	494.64	-1428.7	1080.7	88.513	-1587.5	1006	269	-1448	649.5	519.27	-1371.4	574.88	517.8	-1442.8	559.56	513.13	-1373.4	666.1	521.41	-1434.5	497.73	518.98	-1400.8	480.66	373.94	-1581.1	442.44	528.21	NaN	NaN	NaN	NaN	NaN	NaN	-1555.3	383.42	511.4	-1810.9	292.27	474	-1775.5	260.59	387.8	-1855.1	338.41	407.67	-1866.7	313.87	375.02	-1884.6	317.28	436.58	-1832.4	137.69	503.08	-1790.8	114.17	388.21	NaN	NaN	NaN	-1348.1	674.67	125.1	-1244.2	635.98	130.75	-1309.9	594.4	148.47	-1291.6	715.94	106.5	-1232.6	532.42	146.51	-1220.8	547.55	287.23	-1270.6	392.85	126.79	-1205.4	307.39	157.8	-1265.5	314.98	131.24	-1208.7	383.7	148.5	-1277.1	104.68	168.06	-1255.9	115.56	269.21	-1350.2	74.28	211.91	-1340.6	49.341	245.51	-1340.8	49.488	183.29	-1127.9	41.356	158.97	-1107.7	46.875	281.58	-1042	55.575	233.39	-1498.5	1576.3	284.2	-1592.7	1265.6	298.25
4	0.0125	NaN	NaN	NaN	-1395.1	1510.7	443.75	-1411.3	1523.4	116.19	-1355.1	1829.6	268.03	NaN	NaN	NaN	NaN	NaN	NaN	-1576.1	1046.4	323.41	-1566.2	1041.9	220.44	-1441.6	954.41	516.52	-1409.9	958.01	88.498	-1436.1	1108.4	494.27	-1422.6	1082	88.252	-1582.5	1007.5	268.51	-1439.4	650.98	519.34	-1362.2	577.01	517.81	-1433.5	561.07	513.18	-1365.1	668.17	521.43	-1425.7	499.91	519.19	-1390.8	482.57	373.89	-1571	443.75	527.83	NaN	NaN	NaN	NaN	NaN	NaN	-1544.9	384.84	511.39	-1799.8	292.47	473.74	-1764.1	260.44	387.63	-1844.5	337.69	406.96	-1855.9	312.75	374.56	-1873.8	316.69	436.07	-1820.7	138.3	504.11	-1778.4	113.8	389.46	NaN	NaN	NaN	-1344.9	675.46	124.73	-1241.2	636.17	130.37	-1307.2	594.94	147.99	-1288.2	716.38	106.19	-1230.4	532.41	146.07	-1218.6	547.28	286.58	-1269.4	392.88	126.44	-1204.4	307.15	157.49	-1264.5	314.92	130.92	-1207.3	383.44	148.07	-1277	104.82	168.01	-1255.7	115.69	269.1	-1350.1	74.505	211.88	-1340.5	49.553	245.45	-1340.7	49.613	183.25	-1127.9	41.218	158.97	-1107.6	46.796	281.56	-1041.9	55.383	233.3	-1493.7	1577.7	283.47	-1587.7	1266.9	297.52
5	0.016667	NaN	NaN	NaN	-1390.4	1512.3	443.15	-1406.2	1524.8	115.57	-1349.5	1831	267.41	NaN	NaN	NaN	NaN	NaN	NaN	-1570.8	1047.9	322.94	-1560.9	1043.4	219.96	-1436.3	956.22	516.43	-1404.8	959.16	88.34	-1431.3	1110.2	493.88	-1416.4	1083.5	88.006	-1577.4	1009	268.05	-1430.6	652.52	519.42	-1352.8	579.22	517.84	-1424.1	562.66	513.23	-1356.6	670.32	521.47	-1416.5	502.12	519.4	-1380.5	484.58	373.84	-1560.6	445.07	527.45	NaN	NaN	NaN	NaN	NaN	NaN	-1534.3	386.27	511.38	-1788.4	292.59	473.47	-1752.3	260.23	387.44	-1833.6	336.83	406.24	-1844.9	311.47	374.1	-1862.6	315.94	435.55	-1808.4	138.8	505.13	-1765.5	113.36	390.71	NaN	NaN	NaN	-1341.7	676.27	124.33	-1238.3	636.35	129.97	-1304.5	595.49	147.49	-1284.7	716.84	105.86	-1228.3	532.4	145.62	-1216.4	547.02	285.93	-1268.1	392.91	126.08	-1203.4	306.91	157.16	-1263.5	314.86	130.61	-1206	383.18	147.62	-1276.8	104.96	167.96	-1255.5	115.83	268.98	-1350	74.734	211.84	-1340.5	49.765	245.39	-1340.6	49.743	183.22	-1127.9	41.081	158.97	-1107.5	46.721	281.53	-1041.8	55.193	233.21	-1488.8	1579.2	282.73	-1582.6	1268.3	296.8
6	0.020833	NaN	NaN	NaN	-1385.6	1513.9	442.54	-1400.9	1526.2	114.95	-1343.8	1832.3	266.81	NaN	NaN	NaN	NaN	NaN	NaN	-1565.5	1049.4	322.5	-1555.5	1044.9	219.5	-1430.9	958.05	516.35	-1399.5	960.36	88.182	-1426.4	1112	493.47	-1410.2	1084.9	87.778	-1572.2	1010.5	267.61	-1421.6	654.11	519.51	-1343.3	581.5	517.88	-1414.4	564.3	513.28	-1348	672.52	521.53	-1407.1	504.36	519.58	-1370.1	486.66	373.78	-1550	446.37	527.07	NaN	NaN	NaN	NaN	NaN	NaN	-1523.4	387.7	511.37	-1776.7	292.58	473.2	-1740.3	259.92	387.26	-1822.5	335.82	405.54	-1833.6	310.03	373.64	-1851.2	315.02	435.03	-1795.7	139.18	506.16	-1752.2	112.84	391.93	NaN	NaN	NaN	-1338.4	677.11	123.93	-1235.3	636.54	129.56	-1301.8	596.07	146.98	-1281.2	717.32	105.52	-1226.2	532.41	145.14	-1214.1	546.77	285.29	-1266.8	392.94	125.71	-1202.4	306.69	156.82	-1262.6	314.81	130.29	-1204.6	382.93	147.15	-1276.7	105.09	167.91	-1255.3	115.98	268.86	-1349.9	74.964	211.8	-1340.4	49.976	245.34	-1340.5	49.878	183.19	-1127.8	40.945	158.97	-1107.5	46.653	281.5	-1041.7	55.008	233.13	-1483.8	1580.7	282	-1577.3	1269.7	296.07
7	0.025	NaN	NaN	NaN	-1380.7	1515.6	441.93	-1395.7	1527.6	114.33	-1338.1	1833.7	266.22	NaN	NaN	NaN	NaN	NaN	NaN	-1560.1	1050.9	322.09	-1550	1046.5	219.08	-1425.4	959.91	516.27	-1394.2	961.61	88.026	-1421.4	1113.9	493.06	-1403.9	1086.4	87.573	-1566.8	1012.1	267.21	-1412.6	655.74	519.62	-1333.7	583.83	517.92	-1404.6	566	513.34	-1339.2	674.78	521.6	-1397.4	506.6	519.74	-1359.6	488.82	373.72	-1539.3	447.63	526.71	NaN	NaN	NaN	NaN	NaN	NaN	-1512.3	389.13	511.34	-1764.7	292.43	472.93	-1728	259.51	387.07	-1811.1	334.63	404.84	-1822	308.41	373.19	-1839.6	313.92	434.53	-1782.6	139.4	507.18	-1738.6	112.25	393.13	NaN	NaN	NaN	-1335.2	677.97	123.52	-1232.4	636.73	129.13	-1299.2	596.67	146.46	-1277.8	717.81	105.17	-1224.1	532.42	144.65	-1211.9	546.53	284.64	-1265.6	392.97	125.34	-1201.4	306.47	156.45	-1261.6	314.78	129.97	-1203.4	382.69	146.67	-1276.5	105.23	167.85	-1255.1	116.13	268.74	-1349.8	75.193	211.77	-1340.4	50.184	245.29	-1340.5	50.015	183.16	-1127.8	40.813	158.96	-1107.4	46.592	281.46	-1041.6	54.829	233.05	-1478.8	1582.2	281.26	-1572.1	1271.1	295.35
